<?xml version="1.0" encoding="UTF-8"?>
<svg width="737px" height="817px" viewBox="0 0 737 817" version="1.1" xmlns="http://www.w3.org/2000/svg" xmlns:xlink="http://www.w3.org/1999/xlink">
    <!-- Generator: Sketch 58 (84663) - https://sketch.com -->
    <title>apple</title>
    <desc>Created with Sketch.</desc>
    <defs>
        <path d="M221.519104,116.547279 C221.545205,175.069774 174.32387,222.490069 116.046808,222.463968 C57.7706885,222.437846 10.5070182,174.975215 10.4808956,116.452721 C10.4547951,57.9311728 57.6761298,10.509931 115.952249,10.5360317 C174.229312,10.5621544 221.492982,58.0257315 221.519104,116.547279" id="path-1"></path>
        <path d="M241.434455,135.375013 C241.365351,193.769559 194.104818,241.163258 135.874542,241.232362 C77.645208,241.301314 30.4965908,194.019532 30.5655435,135.624986 C30.6346465,77.231385 77.8951809,29.8367413 136.124515,29.7676383 C194.354791,29.6986851 241.503407,76.981412 241.434455,135.375013" id="path-3"></path>
        <path d="M242.871666,137.371136 C242.800416,195.684531 195.342403,243.014181 136.870663,243.085431 C78.3998684,243.15652 31.0572433,195.942258 31.1283328,137.628863 C31.1995815,79.3164107 78.6575958,31.9858174 137.12839,31.9145681 C195.600131,31.8434785 242.942755,79.0586834 242.871666,137.371136" id="path-5"></path>
        <path d="M243.63514,137.257729 C243.777158,195.914611 196.598232,243.349628 138.257257,243.207608 C79.917225,243.064951 32.507523,195.399157 32.3648624,136.742274 C32.2228465,78.0863403 79.4017703,30.6503748 137.741802,30.7923931 C196.082777,30.9350526 243.492481,78.601795 243.63514,137.257729" id="path-7"></path>
        <path d="M221.519104,116.45272 C221.492982,174.975214 174.229312,222.437845 115.952249,222.463968 C57.6761297,222.490069 10.4547947,175.069773 10.4808956,116.547279 C10.5070178,58.0257311 57.7706884,10.562154 116.046808,10.5360317 C174.32387,10.5099306 221.545205,57.9311724 221.519104,116.45272" id="path-9"></path>
        <path d="M252.269058,146.5 C252.269058,204.914854 204.914643,252.269058 146.499528,252.269058 C88.0853574,252.269058 40.7309417,204.914854 40.7309417,146.5 C40.7309417,88.0860906 88.0853574,40.7309417 146.499528,40.7309417 C204.914643,40.7309417 252.269058,88.0860906 252.269058,146.5" id="path-11"></path>
        <path d="M252.269058,146.5 C252.269058,204.914854 204.914643,252.269058 146.499528,252.269058 C88.0853574,252.269058 40.7309417,204.914854 40.7309417,146.5 C40.7309417,88.0860906 88.0853574,40.7309417 146.499528,40.7309417 C204.914643,40.7309417 252.269058,88.0860906 252.269058,146.5" id="path-13"></path>
    </defs>
    <g id="Page-1" stroke="none" stroke-width="1" fill="none" fill-rule="evenodd">
        <g id="IMac-21,5-Copy" transform="translate(-1060.000000, -1193.000000)">
            <g id="apple" transform="translate(1060.000000, 1192.000000)">
                <path d="M114.10849,389.489655 C64.4007991,384.227877 28.3092443,339.672248 33.4958607,289.972683 C38.682477,240.273118 83.1833322,204.24855 132.891023,209.510327 C182.599677,214.772207 218.69075,259.327785 213.504134,309.02735 C208.317518,358.726915 163.817144,394.751534 114.10849,389.489655 Z" id="Fill-403" fill="#FFCC66" style="mix-blend-mode: multiply;"></path>
                <path d="M276.522943,173.245898 C259.417911,126.251674 283.373453,74.3895367 330.028468,57.4090291 C376.683484,40.4285215 428.371872,64.7593778 445.476904,111.753602 C462.582268,158.748736 438.62656,210.610418 391.971544,227.590925 C345.316528,244.571433 293.628306,220.241032 276.522943,173.245898 Z" id="Fill-403-Copy-4" fill="#FFCC66" style="mix-blend-mode: multiply;"></path>
                <path d="M458.113142,161.281265 C476.133869,114.588744 528.524265,91.1616608 575.129554,108.955312 C621.734843,126.748962 644.907752,179.025713 626.887025,225.718234 C608.865948,272.411659 556.475727,295.83829 509.870438,278.04464 C463.265149,260.250989 440.092066,207.974691 458.113142,161.281265 Z" id="Fill-403-Copy-5" fill="#FFCC66" style="mix-blend-mode: multiply;"></path>
                <path d="M623.108977,375.504688 C672.816668,370.301052 717.317523,405.927559 722.504139,455.077957 C727.690756,504.228356 691.599201,548.291657 641.89151,553.495294 C592.182856,558.699031 547.682482,523.072474 542.495866,473.922075 C537.30925,424.771677 573.400323,380.708426 623.108977,375.504688 Z" id="Fill-403-Copy" fill="#FFCC66" style="mix-blend-mode: multiply;"></path>
                <path d="M509.157991,621.036231 C535.63223,663.738009 522.9966,719.829187 480.936086,746.318793 C438.875571,772.808399 383.316549,759.666041 356.84231,716.964264 C330.367558,674.261659 343.003445,618.170894 385.063959,591.681288 C427.124473,565.191683 482.683239,578.333626 509.157991,621.036231 Z" id="Fill-403-Copy-2" fill="#FFCC66" style="mix-blend-mode: multiply;"></path>
                <path d="M236.15769,629.200724 C209.683451,671.667876 154.124429,684.738023 112.063914,658.393964 C70.0034,632.049905 57.3677698,576.266921 83.8420087,533.799768 C110.316761,491.331793 165.875527,478.262058 207.936041,504.606117 C249.996555,530.950175 262.632442,586.732748 236.15769,629.200724 Z" id="Fill-403-Copy-3" fill="#FFCC66" style="mix-blend-mode: multiply;"></path>
                <g id="an-apple" transform="translate(2.000000, 379.000000)">
                    <mask id="mask-2" fill="white">
                        <use xlink:href="#path-1"></use>
                    </mask>
                    <use id="Mask" fill="#FFCC66" style="mix-blend-mode: multiply;" transform="translate(116.000000, 116.500000) rotate(-354.000000) translate(-116.000000, -116.500000) " xlink:href="#path-1"></use>
                </g>
                <g id="an-apple-copy-4" transform="translate(47.000000, 88.000000)">
                    <mask id="mask-4" fill="white">
                        <use xlink:href="#path-3"></use>
                    </mask>
                    <use id="Mask" fill="#FFCC66" style="mix-blend-mode: multiply;" transform="translate(135.999999, 135.500000) rotate(-290.000000) translate(-135.999999, -135.500000) " xlink:href="#path-3"></use>
                </g>
                <g id="an-apple-copy-5" transform="translate(218.000000, 0.000000)">
                    <mask id="mask-6" fill="white">
                        <use xlink:href="#path-5"></use>
                    </mask>
                    <use id="Mask" fill="#FFCC66" style="mix-blend-mode: multiply;" transform="translate(136.999999, 137.500000) rotate(-249.000000) translate(-136.999999, -137.500000) " xlink:href="#path-5"></use>
                </g>
                <g id="an-apple-copy-6" transform="translate(228.000000, 270.000000)">
                    <mask id="mask-8" fill="white">
                        <use xlink:href="#path-7"></use>
                    </mask>
                    <use id="Mask" fill="#FFCC66" style="mix-blend-mode: multiply;" transform="translate(138.000001, 137.000000) rotate(-249.000000) translate(-138.000001, -137.000000) " xlink:href="#path-7"></use>
                </g>
                <g id="an-apple-copy" transform="translate(482.000000, 155.000000)">
                    <mask id="mask-10" fill="white">
                        <use xlink:href="#path-9"></use>
                    </mask>
                    <use id="Mask" fill="#FFCC66" style="mix-blend-mode: multiply;" transform="translate(116.000000, 116.500000) rotate(-186.000000) translate(-116.000000, -116.500000) " xlink:href="#path-9"></use>
                </g>
                <g id="an-apple-copy-2" transform="translate(445.000000, 406.000000)">
                    <mask id="mask-12" fill="white">
                        <use xlink:href="#path-11"></use>
                    </mask>
                    <use id="Mask" fill="#FFCC66" style="mix-blend-mode: multiply;" transform="translate(146.500000, 146.500000) rotate(-122.000000) translate(-146.500000, -146.500000) " xlink:href="#path-11"></use>
                </g>
                <g id="an-apple-copy-3" transform="translate(188.000000, 526.000000)">
                    <mask id="mask-14" fill="white">
                        <use xlink:href="#path-13"></use>
                    </mask>
                    <use id="Mask" fill="#FFCC66" style="mix-blend-mode: multiply;" transform="translate(146.500000, 146.500000) rotate(-58.000000) translate(-146.500000, -146.500000) " xlink:href="#path-13"></use>
                </g>
                <polygon id="Fill-407" fill="#FF97D3" style="mix-blend-mode: multiply;" points="47.1948212 158 2 589.332561 217 612"></polygon>
                <polygon id="Fill-407-Copy-4" fill="#FF97D3" style="mix-blend-mode: multiply;" points="455 13 47 160.868002 121.249928 364"></polygon>
                <polygon id="Fill-407-Copy-5" fill="#FF97D3" style="mix-blend-mode: multiply;" points="698 156.08107 293.614521 1 216 203"></polygon>
                <polygon id="Fill-407-Copy" fill="#FF97D3" style="mix-blend-mode: multiply;" points="737 587 691.665322 155 476 177.702515"></polygon>
                <polygon id="Fill-407-Copy-2" fill="#FF97D3" style="mix-blend-mode: multiply;" points="369 816 737 586.021371 622.024039 402"></polygon>
                <polygon id="Fill-407-Copy-3" fill="#FF97D3" style="mix-blend-mode: multiply;" points="0 589 368.018317 818 483 634.761696"></polygon>
                <path d="M13,350.655779 C63.2985628,363.815343 95.7838685,347.077581 110.455917,300.442494 C147.362426,305.201642 165.81568,288.136013 165.81568,249.245607 C200.845318,231.992025 205.385395,203.068293 179.435913,162.474412 C194.977321,125.372317 185.992913,102.136172 152.482688,92.7659778 C161.318342,42.3193251 144.266825,18.4681238 101.328137,21.212374 C58.3894491,23.9566242 28.9467367,133.771092 13,350.655779 Z" id="Path-3" fill="#FFF3F3"></path>
            </g>
        </g>
    </g>
</svg>