<?xml version="1.0" encoding="UTF-8"?>
<svg width="740px" height="736px" viewBox="0 0 740 736" version="1.1" xmlns="http://www.w3.org/2000/svg" xmlns:xlink="http://www.w3.org/1999/xlink">
    <!-- Generator: Sketch 58 (84663) - https://sketch.com -->
    <title>atom</title>
    <desc>Created with Sketch.</desc>
    <g id="Page-1" stroke="none" stroke-width="1" fill="none" fill-rule="evenodd">
        <g id="IMac-21,5-Copy" transform="translate(-1114.000000, -2360.000000)">
            <g id="atom" transform="translate(1110.000000, 2326.000000)">
                <g id="Group-417-Copy" transform="translate(267.000000, 437.000000)">
                    <polygon id="Fill-414" fill="#FFF1D9" transform="translate(41.010694, 36.495657) rotate(-81.000000) translate(-41.010694, -36.495657) " points="71.9252265 73.0693479 10.0961619 37.270853 71.9018835 -0.07803411"></polygon>
                    <polygon id="Fill-411" fill="#FFCC66" style="mix-blend-mode: multiply;" transform="translate(37.770022, 56.851159) rotate(-81.000000) translate(-37.770022, -56.851159) " points="27.4554096 20.2741736 48.0612918 20.2807623 48.0846348 93.4281443 27.4787526 93.4215556"></polygon>
                </g>
                <polygon id="Fill-411" fill="#FFCC66" style="mix-blend-mode: multiply;" transform="translate(247.314613, 613.576985) rotate(-47.000000) translate(-247.314613, -613.576985) " points="237 577 257.605882 577.006589 257.629225 650.153971 237.023343 650.147382"></polygon>
                <polygon id="Fill-411-Copy-2" fill="#FFCC66" style="mix-blend-mode: multiply;" transform="translate(117.314613, 543.576985) rotate(-152.000000) translate(-117.314613, -543.576985) " points="107 507 127.605882 507.006589 127.629225 580.153971 107.023343 580.147382"></polygon>
                <polygon id="Fill-414" fill="#FFF1D9" transform="translate(278.914532, 552.573691) rotate(-13.000000) translate(-278.914532, -552.573691) " points="309.829065 589.147382 248 553.348887 309.805722 516"></polygon>
                <polygon id="Fill-414-Copy-2" fill="#FFF1D9" transform="translate(128.914532, 644.573691) rotate(-44.000000) translate(-128.914532, -644.573691) " points="159.829065 681.147382 98 645.348887 159.805722 608"></polygon>
                <polygon id="Fill-414-Copy-3" fill="#FFF1D9" transform="translate(38.914532, 474.573691) rotate(-86.000000) translate(-38.914532, -474.573691) " points="69.8290646 511.147382 8 475.348887 69.8057216 438"></polygon>
                <g id="Group-3" transform="translate(428.761247, 404.975920) rotate(17.000000) translate(-428.761247, -404.975920) translate(340.761247, 320.475920)">
                    <g id="Group-417-Copy-4" transform="translate(58.000000, 0.000000)">
                        <polygon id="Fill-414" fill="#FFF1D9" transform="translate(41.010694, 36.495657) rotate(-81.000000) translate(-41.010694, -36.495657) " points="71.9252265 73.0693479 10.0961619 37.270853 71.9018835 -0.07803411"></polygon>
                        <polygon id="Fill-411" fill="#FFCC66" style="mix-blend-mode: multiply;" transform="translate(37.770022, 56.851159) rotate(-81.000000) translate(-37.770022, -56.851159) " points="27.4554096 20.2741736 48.0612918 20.2807623 48.0846348 93.4281443 27.4787526 93.4215556"></polygon>
                    </g>
                    <g id="Group-417-Copy-5" transform="translate(0.000000, 60.000000)">
                        <polygon id="Fill-414" fill="#FFF1D9" transform="translate(41.454732, 44.462154) rotate(-199.000000) translate(-41.454732, -44.462154) " points="72.3707744 80.7853294 10.5386886 45.1506263 72.2514455 8.13897803"></polygon>
                        <polygon id="Fill-411" fill="#FFCC66" style="mix-blend-mode: multiply;" transform="translate(60.980365, 37.827995) rotate(-199.000000) translate(-60.980365, -37.827995) " points="50.6250808 1.48797825 71.2163202 1.5216598 71.3356491 74.1680112 50.7444098 74.1343297"></polygon>
                    </g>
                    <g id="Group-417-Copy-6" transform="translate(82.000000, 73.000000)">
                        <polygon id="Fill-414" fill="#FFF1D9" transform="translate(46.992926, 48.045188) rotate(-320.000000) translate(-46.992926, -48.045188) " points="77.7005834 84.2990628 16.2852691 48.7548733 77.6080852 11.7913122"></polygon>
                        <polygon id="Fill-411" fill="#FFCC66" style="mix-blend-mode: multiply;" transform="translate(31.346048, 34.830693) rotate(-320.000000) translate(-31.346048, -34.830693) " points="21.0714542 -1.43623662 41.5281443 -1.41012825 41.6206425 71.0976224 21.1639524 71.071514"></polygon>
                    </g>
                </g>
                <g id="Group-3-Copy-3" transform="translate(510.000000, 543.500000) rotate(9.000000) translate(-510.000000, -543.500000) translate(422.000000, 459.000000)">
                    <g id="Group-417-Copy-4" transform="translate(58.000000, 0.000000)">
                        <polygon id="Fill-414" fill="#FFF1D9" transform="translate(41.010694, 36.495657) rotate(-81.000000) translate(-41.010694, -36.495657) " points="71.9252265 73.0693479 10.0961619 37.270853 71.9018835 -0.07803411"></polygon>
                        <polygon id="Fill-411" fill="#FFCC66" style="mix-blend-mode: multiply;" transform="translate(37.770022, 56.851159) rotate(-81.000000) translate(-37.770022, -56.851159) " points="27.4554096 20.2741736 48.0612918 20.2807623 48.0846348 93.4281443 27.4787526 93.4215556"></polygon>
                    </g>
                    <g id="Group-417-Copy-5" transform="translate(0.000000, 60.000000)">
                        <polygon id="Fill-414" fill="#FFF1D9" transform="translate(41.454732, 44.462154) rotate(-199.000000) translate(-41.454732, -44.462154) " points="72.3707744 80.7853294 10.5386886 45.1506263 72.2514455 8.13897803"></polygon>
                        <polygon id="Fill-411" fill="#FFCC66" style="mix-blend-mode: multiply;" transform="translate(60.980365, 37.827995) rotate(-199.000000) translate(-60.980365, -37.827995) " points="50.6250808 1.48797825 71.2163202 1.5216598 71.3356491 74.1680112 50.7444098 74.1343297"></polygon>
                    </g>
                    <g id="Group-417-Copy-6" transform="translate(82.000000, 73.000000)">
                        <polygon id="Fill-414" fill="#FFF1D9" transform="translate(46.992926, 48.045188) rotate(-320.000000) translate(-46.992926, -48.045188) " points="77.7005834 84.2990628 16.2852691 48.7548733 77.6080852 11.7913122"></polygon>
                        <polygon id="Fill-411" fill="#FFCC66" style="mix-blend-mode: multiply;" transform="translate(31.346048, 34.830693) rotate(-320.000000) translate(-31.346048, -34.830693) " points="21.0714542 -1.43623662 41.5281443 -1.41012825 41.6206425 71.0976224 21.1639524 71.071514"></polygon>
                    </g>
                </g>
                <g id="Group-3-Copy" transform="translate(498.761247, 259.975920) rotate(-45.000000) translate(-498.761247, -259.975920) translate(410.761247, 175.475920)">
                    <g id="Group-417-Copy-4" transform="translate(58.000000, 0.000000)">
                        <polygon id="Fill-414" fill="#FFF1D9" transform="translate(41.010694, 36.495657) rotate(-81.000000) translate(-41.010694, -36.495657) " points="71.9252265 73.0693479 10.0961619 37.270853 71.9018835 -0.07803411"></polygon>
                        <polygon id="Fill-411" fill="#FFCC66" style="mix-blend-mode: multiply;" transform="translate(37.770022, 56.851159) rotate(-81.000000) translate(-37.770022, -56.851159) " points="27.4554096 20.2741736 48.0612918 20.2807623 48.0846348 93.4281443 27.4787526 93.4215556"></polygon>
                    </g>
                    <g id="Group-417-Copy-5" transform="translate(0.000000, 60.000000)">
                        <polygon id="Fill-414" fill="#FFF1D9" transform="translate(41.454732, 44.462154) rotate(-199.000000) translate(-41.454732, -44.462154) " points="72.3707744 80.7853294 10.5386886 45.1506263 72.2514455 8.13897803"></polygon>
                        <polygon id="Fill-411" fill="#FFCC66" style="mix-blend-mode: multiply;" transform="translate(60.980365, 37.827995) rotate(-199.000000) translate(-60.980365, -37.827995) " points="50.6250808 1.48797825 71.2163202 1.5216598 71.3356491 74.1680112 50.7444098 74.1343297"></polygon>
                    </g>
                    <g id="Group-417-Copy-6" transform="translate(82.000000, 73.000000)">
                        <polygon id="Fill-414" fill="#FFF1D9" transform="translate(46.992926, 48.045188) rotate(-320.000000) translate(-46.992926, -48.045188) " points="77.7005834 84.2990628 16.2852691 48.7548733 77.6080852 11.7913122"></polygon>
                        <polygon id="Fill-411" fill="#FFCC66" style="mix-blend-mode: multiply;" transform="translate(31.346048, 34.830693) rotate(-320.000000) translate(-31.346048, -34.830693) " points="21.0714542 -1.43623662 41.5281443 -1.41012825 41.6206425 71.0976224 21.1639524 71.071514"></polygon>
                    </g>
                </g>
                <g id="Group-3-Copy-5" transform="translate(655.000000, 226.500000) rotate(-45.000000) translate(-655.000000, -226.500000) translate(567.000000, 142.000000)">
                    <g id="Group-417-Copy-4" transform="translate(58.000000, 0.000000)">
                        <polygon id="Fill-414" fill="#FFF1D9" transform="translate(41.010694, 36.495657) rotate(-81.000000) translate(-41.010694, -36.495657) " points="71.9252265 73.0693479 10.0961619 37.270853 71.9018835 -0.07803411"></polygon>
                        <polygon id="Fill-411" fill="#FFCC66" style="mix-blend-mode: multiply;" transform="translate(37.770022, 56.851159) rotate(-81.000000) translate(-37.770022, -56.851159) " points="27.4554096 20.2741736 48.0612918 20.2807623 48.0846348 93.4281443 27.4787526 93.4215556"></polygon>
                    </g>
                    <g id="Group-417-Copy-5" transform="translate(0.000000, 60.000000)">
                        <polygon id="Fill-414" fill="#FFF1D9" transform="translate(41.454732, 44.462154) rotate(-199.000000) translate(-41.454732, -44.462154) " points="72.3707744 80.7853294 10.5386886 45.1506263 72.2514455 8.13897803"></polygon>
                        <polygon id="Fill-411" fill="#FFCC66" style="mix-blend-mode: multiply;" transform="translate(60.980365, 37.827995) rotate(-199.000000) translate(-60.980365, -37.827995) " points="50.6250808 1.48797825 71.2163202 1.5216598 71.3356491 74.1680112 50.7444098 74.1343297"></polygon>
                    </g>
                    <g id="Group-417-Copy-6" transform="translate(82.000000, 73.000000)">
                        <polygon id="Fill-414" fill="#FFF1D9" transform="translate(46.992926, 48.045188) rotate(-320.000000) translate(-46.992926, -48.045188) " points="77.7005834 84.2990628 16.2852691 48.7548733 77.6080852 11.7913122"></polygon>
                        <polygon id="Fill-411" fill="#FFCC66" style="mix-blend-mode: multiply;" transform="translate(31.346048, 34.830693) rotate(-320.000000) translate(-31.346048, -34.830693) " points="21.0714542 -1.43623662 41.5281443 -1.41012825 41.6206425 71.0976224 21.1639524 71.071514"></polygon>
                    </g>
                </g>
                <g id="Group-3-Copy-4" transform="translate(426.000000, 122.500000) rotate(-45.000000) translate(-426.000000, -122.500000) translate(338.000000, 38.000000)">
                    <g id="Group-417-Copy-4" transform="translate(58.000000, 0.000000)">
                        <polygon id="Fill-414" fill="#FFF1D9" transform="translate(41.010694, 36.495657) rotate(-81.000000) translate(-41.010694, -36.495657) " points="71.9252265 73.0693479 10.0961619 37.270853 71.9018835 -0.07803411"></polygon>
                        <polygon id="Fill-411" fill="#FFCC66" style="mix-blend-mode: multiply;" transform="translate(37.770022, 56.851159) rotate(-81.000000) translate(-37.770022, -56.851159) " points="27.4554096 20.2741736 48.0612918 20.2807623 48.0846348 93.4281443 27.4787526 93.4215556"></polygon>
                    </g>
                    <g id="Group-417-Copy-5" transform="translate(0.000000, 60.000000)">
                        <polygon id="Fill-414" fill="#FFF1D9" transform="translate(41.454732, 44.462154) rotate(-199.000000) translate(-41.454732, -44.462154) " points="72.3707744 80.7853294 10.5386886 45.1506263 72.2514455 8.13897803"></polygon>
                        <polygon id="Fill-411" fill="#FFCC66" style="mix-blend-mode: multiply;" transform="translate(60.980365, 37.827995) rotate(-199.000000) translate(-60.980365, -37.827995) " points="50.6250808 1.48797825 71.2163202 1.5216598 71.3356491 74.1680112 50.7444098 74.1343297"></polygon>
                    </g>
                    <g id="Group-417-Copy-6" transform="translate(82.000000, 73.000000)">
                        <polygon id="Fill-414" fill="#FFF1D9" transform="translate(46.992926, 48.045188) rotate(-320.000000) translate(-46.992926, -48.045188) " points="77.7005834 84.2990628 16.2852691 48.7548733 77.6080852 11.7913122"></polygon>
                        <polygon id="Fill-411" fill="#FFCC66" style="mix-blend-mode: multiply;" transform="translate(31.346048, 34.830693) rotate(-320.000000) translate(-31.346048, -34.830693) " points="21.0714542 -1.43623662 41.5281443 -1.41012825 41.6206425 71.0976224 21.1639524 71.071514"></polygon>
                    </g>
                </g>
                <g id="Group-3-Copy-2" transform="translate(621.000000, 676.500000) rotate(24.000000) translate(-621.000000, -676.500000) translate(533.000000, 592.000000)">
                    <g id="Group-417-Copy-4" transform="translate(58.000000, 0.000000)">
                        <polygon id="Fill-414" fill="#FFF1D9" transform="translate(41.010694, 36.495657) rotate(-81.000000) translate(-41.010694, -36.495657) " points="71.9252265 73.0693479 10.0961619 37.270853 71.9018835 -0.07803411"></polygon>
                        <polygon id="Fill-411" fill="#FFCC66" style="mix-blend-mode: multiply;" transform="translate(37.770022, 56.851159) rotate(-81.000000) translate(-37.770022, -56.851159) " points="27.4554096 20.2741736 48.0612918 20.2807623 48.0846348 93.4281443 27.4787526 93.4215556"></polygon>
                    </g>
                    <g id="Group-417-Copy-5" transform="translate(0.000000, 60.000000)">
                        <polygon id="Fill-414" fill="#FFF1D9" transform="translate(41.454732, 44.462154) rotate(-199.000000) translate(-41.454732, -44.462154) " points="72.3707744 80.7853294 10.5386886 45.1506263 72.2514455 8.13897803"></polygon>
                        <polygon id="Fill-411" fill="#FFCC66" style="mix-blend-mode: multiply;" transform="translate(60.980365, 37.827995) rotate(-199.000000) translate(-60.980365, -37.827995) " points="50.6250808 1.48797825 71.2163202 1.5216598 71.3356491 74.1680112 50.7444098 74.1343297"></polygon>
                    </g>
                    <g id="Group-417-Copy-6" transform="translate(82.000000, 73.000000)">
                        <polygon id="Fill-414" fill="#FFF1D9" transform="translate(46.992926, 48.045188) rotate(-320.000000) translate(-46.992926, -48.045188) " points="77.7005834 84.2990628 16.2852691 48.7548733 77.6080852 11.7913122"></polygon>
                        <polygon id="Fill-411" fill="#FFCC66" style="mix-blend-mode: multiply;" transform="translate(31.346048, 34.830693) rotate(-320.000000) translate(-31.346048, -34.830693) " points="21.0714542 -1.43623662 41.5281443 -1.41012825 41.6206425 71.0976224 21.1639524 71.071514"></polygon>
                    </g>
                </g>
            </g>
        </g>
    </g>
</svg>