<?xml version="1.0" encoding="UTF-8"?>
<svg width="398px" height="736px" viewBox="0 0 398 736" version="1.1" xmlns="http://www.w3.org/2000/svg" xmlns:xlink="http://www.w3.org/1999/xlink">
    <!-- Generator: Sketch 58 (84663) - https://sketch.com -->
    <title>atom</title>
    <desc>Created with Sketch.</desc>
    <g id="Page-1" stroke="none" stroke-width="1" fill="none" fill-rule="evenodd">
        <g id="IMac-21,5-Copy" transform="translate(-1456.000000, -2360.000000)">
            <g id="atom" transform="translate(1414.000000, 2326.000000)">
                <g id="Group-3" transform="translate(124.761247, 404.975920) rotate(17.000000) translate(-124.761247, -404.975920) translate(36.761247, 320.475920)">
                    <g id="Group-417-Copy-4" transform="translate(58.000000, 0.000000)">
                        <polygon id="Fill-414" fill="#FFF3F3" transform="translate(41.010694, 36.495657) rotate(-81.000000) translate(-41.010694, -36.495657) " points="71.9252265 73.0693479 10.0961619 37.270853 71.9018835 -0.07803411"></polygon>
                        <polygon id="Fill-411" fill="#FFCC66" style="mix-blend-mode: multiply;" transform="translate(37.770022, 56.851159) rotate(-81.000000) translate(-37.770022, -56.851159) " points="27.4554096 20.2741736 48.0612918 20.2807623 48.0846348 93.4281443 27.4787526 93.4215556"></polygon>
                    </g>
                    <g id="Group-417-Copy-5" transform="translate(0.000000, 60.000000)">
                        <polygon id="Fill-414" fill="#FFF3F3" transform="translate(41.454732, 44.462154) rotate(-199.000000) translate(-41.454732, -44.462154) " points="72.3707744 80.7853294 10.5386886 45.1506263 72.2514455 8.13897803"></polygon>
                        <polygon id="Fill-411" fill="#FFCC66" style="mix-blend-mode: multiply;" transform="translate(60.980365, 37.827995) rotate(-199.000000) translate(-60.980365, -37.827995) " points="50.6250808 1.48797825 71.2163202 1.5216598 71.3356491 74.1680112 50.7444098 74.1343297"></polygon>
                    </g>
                    <g id="Group-417-Copy-6" transform="translate(82.000000, 73.000000)">
                        <polygon id="Fill-414" fill="#FFF3F3" transform="translate(46.992926, 48.045188) rotate(-320.000000) translate(-46.992926, -48.045188) " points="77.7005834 84.2990628 16.2852691 48.7548733 77.6080852 11.7913122"></polygon>
                        <polygon id="Fill-411" fill="#FFCC66" style="mix-blend-mode: multiply;" transform="translate(31.346048, 34.830693) rotate(-320.000000) translate(-31.346048, -34.830693) " points="21.0714542 -1.43623662 41.5281443 -1.41012825 41.6206425 71.0976224 21.1639524 71.071514"></polygon>
                    </g>
                </g>
                <g id="Group-3-Copy-3" transform="translate(206.000000, 543.500000) rotate(9.000000) translate(-206.000000, -543.500000) translate(118.000000, 459.000000)">
                    <g id="Group-417-Copy-4" transform="translate(58.000000, 0.000000)">
                        <polygon id="Fill-414" fill="#FFF3F3" transform="translate(41.010694, 36.495657) rotate(-81.000000) translate(-41.010694, -36.495657) " points="71.9252265 73.0693479 10.0961619 37.270853 71.9018835 -0.07803411"></polygon>
                        <polygon id="Fill-411" fill="#FFCC66" style="mix-blend-mode: multiply;" transform="translate(37.770022, 56.851159) rotate(-81.000000) translate(-37.770022, -56.851159) " points="27.4554096 20.2741736 48.0612918 20.2807623 48.0846348 93.4281443 27.4787526 93.4215556"></polygon>
                    </g>
                    <g id="Group-417-Copy-5" transform="translate(0.000000, 60.000000)">
                        <polygon id="Fill-414" fill="#FFF3F3" transform="translate(41.454732, 44.462154) rotate(-199.000000) translate(-41.454732, -44.462154) " points="72.3707744 80.7853294 10.5386886 45.1506263 72.2514455 8.13897803"></polygon>
                        <polygon id="Fill-411" fill="#FFCC66" style="mix-blend-mode: multiply;" transform="translate(60.980365, 37.827995) rotate(-199.000000) translate(-60.980365, -37.827995) " points="50.6250808 1.48797825 71.2163202 1.5216598 71.3356491 74.1680112 50.7444098 74.1343297"></polygon>
                    </g>
                    <g id="Group-417-Copy-6" transform="translate(82.000000, 73.000000)">
                        <polygon id="Fill-414" fill="#FFF3F3" transform="translate(46.992926, 48.045188) rotate(-320.000000) translate(-46.992926, -48.045188) " points="77.7005834 84.2990628 16.2852691 48.7548733 77.6080852 11.7913122"></polygon>
                        <polygon id="Fill-411" fill="#FFCC66" style="mix-blend-mode: multiply;" transform="translate(31.346048, 34.830693) rotate(-320.000000) translate(-31.346048, -34.830693) " points="21.0714542 -1.43623662 41.5281443 -1.41012825 41.6206425 71.0976224 21.1639524 71.071514"></polygon>
                    </g>
                </g>
                <g id="Group-3-Copy" transform="translate(194.761247, 259.975920) rotate(-45.000000) translate(-194.761247, -259.975920) translate(106.761247, 175.475920)">
                    <g id="Group-417-Copy-4" transform="translate(58.000000, 0.000000)">
                        <polygon id="Fill-414" fill="#FFF3F3" transform="translate(41.010694, 36.495657) rotate(-81.000000) translate(-41.010694, -36.495657) " points="71.9252265 73.0693479 10.0961619 37.270853 71.9018835 -0.07803411"></polygon>
                        <polygon id="Fill-411" fill="#FFCC66" style="mix-blend-mode: multiply;" transform="translate(37.770022, 56.851159) rotate(-81.000000) translate(-37.770022, -56.851159) " points="27.4554096 20.2741736 48.0612918 20.2807623 48.0846348 93.4281443 27.4787526 93.4215556"></polygon>
                    </g>
                    <g id="Group-417-Copy-5" transform="translate(0.000000, 60.000000)">
                        <polygon id="Fill-414" fill="#FFF3F3" transform="translate(41.454732, 44.462154) rotate(-199.000000) translate(-41.454732, -44.462154) " points="72.3707744 80.7853294 10.5386886 45.1506263 72.2514455 8.13897803"></polygon>
                        <polygon id="Fill-411" fill="#FFCC66" style="mix-blend-mode: multiply;" transform="translate(60.980365, 37.827995) rotate(-199.000000) translate(-60.980365, -37.827995) " points="50.6250808 1.48797825 71.2163202 1.5216598 71.3356491 74.1680112 50.7444098 74.1343297"></polygon>
                    </g>
                    <g id="Group-417-Copy-6" transform="translate(82.000000, 73.000000)">
                        <polygon id="Fill-414" fill="#FFF3F3" transform="translate(46.992926, 48.045188) rotate(-320.000000) translate(-46.992926, -48.045188) " points="77.7005834 84.2990628 16.2852691 48.7548733 77.6080852 11.7913122"></polygon>
                        <polygon id="Fill-411" fill="#FFCC66" style="mix-blend-mode: multiply;" transform="translate(31.346048, 34.830693) rotate(-320.000000) translate(-31.346048, -34.830693) " points="21.0714542 -1.43623662 41.5281443 -1.41012825 41.6206425 71.0976224 21.1639524 71.071514"></polygon>
                    </g>
                </g>
                <g id="Group-3-Copy-5" transform="translate(351.000000, 226.500000) rotate(-45.000000) translate(-351.000000, -226.500000) translate(263.000000, 142.000000)">
                    <g id="Group-417-Copy-4" transform="translate(58.000000, 0.000000)">
                        <polygon id="Fill-414" fill="#FFF3F3" transform="translate(41.010694, 36.495657) rotate(-81.000000) translate(-41.010694, -36.495657) " points="71.9252265 73.0693479 10.0961619 37.270853 71.9018835 -0.07803411"></polygon>
                        <polygon id="Fill-411" fill="#FFCC66" style="mix-blend-mode: multiply;" transform="translate(37.770022, 56.851159) rotate(-81.000000) translate(-37.770022, -56.851159) " points="27.4554096 20.2741736 48.0612918 20.2807623 48.0846348 93.4281443 27.4787526 93.4215556"></polygon>
                    </g>
                    <g id="Group-417-Copy-5" transform="translate(0.000000, 60.000000)">
                        <polygon id="Fill-414" fill="#FFF3F3" transform="translate(41.454732, 44.462154) rotate(-199.000000) translate(-41.454732, -44.462154) " points="72.3707744 80.7853294 10.5386886 45.1506263 72.2514455 8.13897803"></polygon>
                        <polygon id="Fill-411" fill="#FFCC66" style="mix-blend-mode: multiply;" transform="translate(60.980365, 37.827995) rotate(-199.000000) translate(-60.980365, -37.827995) " points="50.6250808 1.48797825 71.2163202 1.5216598 71.3356491 74.1680112 50.7444098 74.1343297"></polygon>
                    </g>
                    <g id="Group-417-Copy-6" transform="translate(82.000000, 73.000000)">
                        <polygon id="Fill-414" fill="#FFF3F3" transform="translate(46.992926, 48.045188) rotate(-320.000000) translate(-46.992926, -48.045188) " points="77.7005834 84.2990628 16.2852691 48.7548733 77.6080852 11.7913122"></polygon>
                        <polygon id="Fill-411" fill="#FFCC66" style="mix-blend-mode: multiply;" transform="translate(31.346048, 34.830693) rotate(-320.000000) translate(-31.346048, -34.830693) " points="21.0714542 -1.43623662 41.5281443 -1.41012825 41.6206425 71.0976224 21.1639524 71.071514"></polygon>
                    </g>
                </g>
                <g id="Group-3-Copy-4" transform="translate(122.000000, 122.500000) rotate(-45.000000) translate(-122.000000, -122.500000) translate(34.000000, 38.000000)">
                    <g id="Group-417-Copy-4" transform="translate(58.000000, 0.000000)">
                        <polygon id="Fill-414" fill="#FFF3F3" transform="translate(41.010694, 36.495657) rotate(-81.000000) translate(-41.010694, -36.495657) " points="71.9252265 73.0693479 10.0961619 37.270853 71.9018835 -0.07803411"></polygon>
                        <polygon id="Fill-411" fill="#FFCC66" style="mix-blend-mode: multiply;" transform="translate(37.770022, 56.851159) rotate(-81.000000) translate(-37.770022, -56.851159) " points="27.4554096 20.2741736 48.0612918 20.2807623 48.0846348 93.4281443 27.4787526 93.4215556"></polygon>
                    </g>
                    <g id="Group-417-Copy-5" transform="translate(0.000000, 60.000000)">
                        <polygon id="Fill-414" fill="#FFF3F3" transform="translate(41.454732, 44.462154) rotate(-199.000000) translate(-41.454732, -44.462154) " points="72.3707744 80.7853294 10.5386886 45.1506263 72.2514455 8.13897803"></polygon>
                        <polygon id="Fill-411" fill="#FFCC66" style="mix-blend-mode: multiply;" transform="translate(60.980365, 37.827995) rotate(-199.000000) translate(-60.980365, -37.827995) " points="50.6250808 1.48797825 71.2163202 1.5216598 71.3356491 74.1680112 50.7444098 74.1343297"></polygon>
                    </g>
                    <g id="Group-417-Copy-6" transform="translate(82.000000, 73.000000)">
                        <polygon id="Fill-414" fill="#FFF3F3" transform="translate(46.992926, 48.045188) rotate(-320.000000) translate(-46.992926, -48.045188) " points="77.7005834 84.2990628 16.2852691 48.7548733 77.6080852 11.7913122"></polygon>
                        <polygon id="Fill-411" fill="#FFCC66" style="mix-blend-mode: multiply;" transform="translate(31.346048, 34.830693) rotate(-320.000000) translate(-31.346048, -34.830693) " points="21.0714542 -1.43623662 41.5281443 -1.41012825 41.6206425 71.0976224 21.1639524 71.071514"></polygon>
                    </g>
                </g>
                <g id="Group-3-Copy-2" transform="translate(317.000000, 676.500000) rotate(24.000000) translate(-317.000000, -676.500000) translate(229.000000, 592.000000)">
                    <g id="Group-417-Copy-4" transform="translate(58.000000, 0.000000)">
                        <polygon id="Fill-414" fill="#FFF3F3" transform="translate(41.010694, 36.495657) rotate(-81.000000) translate(-41.010694, -36.495657) " points="71.9252265 73.0693479 10.0961619 37.270853 71.9018835 -0.07803411"></polygon>
                        <polygon id="Fill-411" fill="#FFCC66" style="mix-blend-mode: multiply;" transform="translate(37.770022, 56.851159) rotate(-81.000000) translate(-37.770022, -56.851159) " points="27.4554096 20.2741736 48.0612918 20.2807623 48.0846348 93.4281443 27.4787526 93.4215556"></polygon>
                    </g>
                    <g id="Group-417-Copy-5" transform="translate(0.000000, 60.000000)">
                        <polygon id="Fill-414" fill="#FFF3F3" transform="translate(41.454732, 44.462154) rotate(-199.000000) translate(-41.454732, -44.462154) " points="72.3707744 80.7853294 10.5386886 45.1506263 72.2514455 8.13897803"></polygon>
                        <polygon id="Fill-411" fill="#FFCC66" style="mix-blend-mode: multiply;" transform="translate(60.980365, 37.827995) rotate(-199.000000) translate(-60.980365, -37.827995) " points="50.6250808 1.48797825 71.2163202 1.5216598 71.3356491 74.1680112 50.7444098 74.1343297"></polygon>
                    </g>
                    <g id="Group-417-Copy-6" transform="translate(82.000000, 73.000000)">
                        <polygon id="Fill-414" fill="#FFF3F3" transform="translate(46.992926, 48.045188) rotate(-320.000000) translate(-46.992926, -48.045188) " points="77.7005834 84.2990628 16.2852691 48.7548733 77.6080852 11.7913122"></polygon>
                        <polygon id="Fill-411" fill="#FFCC66" style="mix-blend-mode: multiply;" transform="translate(31.346048, 34.830693) rotate(-320.000000) translate(-31.346048, -34.830693) " points="21.0714542 -1.43623662 41.5281443 -1.41012825 41.6206425 71.0976224 21.1639524 71.071514"></polygon>
                    </g>
                </g>
            </g>
        </g>
    </g>
</svg>