<?xml version="1.0" encoding="UTF-8"?>
<svg width="226px" height="446px" viewBox="0 0 226 446" version="1.1" xmlns="http://www.w3.org/2000/svg" xmlns:xlink="http://www.w3.org/1999/xlink">
    <!-- Generator: Sketch 58 (84663) - https://sketch.com -->
    <title>Group 410 Copy</title>
    <desc>Created with Sketch.</desc>
    <g id="Page-1" stroke="none" stroke-width="1" fill="none" fill-rule="evenodd">
        <g id="IMac-21,5-Copy" transform="translate(-172.000000, -216.000000)">
            <g id="Group-410-Copy" transform="translate(173.000000, 215.000000)">
                <path d="M187.5,129.5 C187.5,181.138256 145.41529,223 93.4997485,223 C41.5852131,223 -0.5,181.138256 -0.5,129.5 C-0.5,77.8617439 41.5852131,36 93.4997485,36 C145.41529,36 187.5,77.8617439 187.5,129.5" id="Fill-403" fill="#FFCC66" style="mix-blend-mode: multiply;"></path>
                <path d="M224.5,335 C224.5,396.856121 174.579755,447 112.999502,447 C51.4202454,447 1.5,396.856121 1.5,335 C1.5,273.144879 51.4202454,223 112.999502,223 C174.579755,223 224.5,273.144879 224.5,335" id="Fill-406" fill="#FFCC66" style="mix-blend-mode: multiply;"></path>
                <polygon id="Fill-407" fill="#FF97D3" style="mix-blend-mode: multiply;" points="1.5 1 1.5 447 224.5 447"></polygon>
            </g>
        </g>
    </g>
</svg>