<?xml version="1.0" encoding="UTF-8"?>
<svg width="1816px" height="131px" viewBox="0 0 1816 131" version="1.1" xmlns="http://www.w3.org/2000/svg" xmlns:xlink="http://www.w3.org/1999/xlink">
    <!-- Generator: Sketch 58 (84663) - https://sketch.com -->
    <title>Group 2</title>
    <desc>Created with Sketch.</desc>
    <g id="Page-1" stroke="none" stroke-width="1" fill="none" fill-rule="evenodd">
        <g id="IMac-21,5-Copy" transform="translate(-92.000000, -3916.000000)">
            <g id="Group-2" transform="translate(84.000000, 3916.000000)">
                <g id="meal">
                    <polygon id="Polygon" fill="#FF7147" points="632.5 0 689.224664 32.75 689.224664 98.25 632.5 131 575.775336 98.25 575.775336 32.75"></polygon>
                    <polygon id="Polygon-Copy" fill="#FF8EB3" points="443.5 0 500.224664 32.75 500.224664 98.25 443.5 131 386.775336 98.25 386.775336 32.75"></polygon>
                    <polygon id="Polygon-Copy-2" fill="#FFC056" points="254.5 0 311.224664 32.75 311.224664 98.25 254.5 131 197.775336 98.25 197.775336 32.75"></polygon>
                    <polygon id="Polygon-Copy-3" fill="#FF7147" points="65.5 0 122.224664 32.75 122.224664 98.25 65.5 131 8.77533605 98.25 8.77533605 32.75"></polygon>
                </g>
                <g id="meal-copy" transform="translate(567.000000, 0.000000)">
                    <polygon id="Polygon" fill="#FF7147" points="632.5 0 689.224664 32.75 689.224664 98.25 632.5 131 575.775336 98.25 575.775336 32.75"></polygon>
                    <polygon id="Polygon-Copy" fill="#FF8EB3" points="443.5 0 500.224664 32.75 500.224664 98.25 443.5 131 386.775336 98.25 386.775336 32.75"></polygon>
                    <polygon id="Polygon-Copy-2" fill="#FFC056" points="254.5 0 311.224664 32.75 311.224664 98.25 254.5 131 197.775336 98.25 197.775336 32.75"></polygon>
                    <polygon id="Polygon-Copy-3" fill="#FF7147" points="65.5 0 122.224664 32.75 122.224664 98.25 65.5 131 8.77533605 98.25 8.77533605 32.75"></polygon>
                </g>
                <g id="meal-copy-2" transform="translate(1134.000000, 0.000000)">
                    <polygon id="Polygon" fill="#FF7147" points="632.5 0 689.224664 32.75 689.224664 98.25 632.5 131 575.775336 98.25 575.775336 32.75"></polygon>
                    <polygon id="Polygon-Copy" fill="#FF8EB3" points="443.5 0 500.224664 32.75 500.224664 98.25 443.5 131 386.775336 98.25 386.775336 32.75"></polygon>
                    <polygon id="Polygon-Copy-2" fill="#FFC056" points="254.5 0 311.224664 32.75 311.224664 98.25 254.5 131 197.775336 98.25 197.775336 32.75"></polygon>
                    <polygon id="Polygon-Copy-3" fill="#FF7147" points="65.5 0 122.224664 32.75 122.224664 98.25 65.5 131 8.77533605 98.25 8.77533605 32.75"></polygon>
                </g>
            </g>
        </g>
    </g>
</svg>